<?xml version="1.0" encoding="iso-8859-1"?>
<!-- Generator: Adobe Illustrator 18.0.0, SVG Export Plug-In . SVG Version: 6.00 Build 0)  -->
<!DOCTYPE svg PUBLIC "-//W3C//DTD SVG 1.1//EN" "http://www.w3.org/Graphics/SVG/1.1/DTD/svg11.dtd">
<svg version="1.1" id="Capa_1" xmlns="http://www.w3.org/2000/svg" xmlns:xlink="http://www.w3.org/1999/xlink" x="0px" y="0px"
	 viewBox="0 0 458.927 458.927" style="enable-background:new 0 0 458.927 458.927;" xml:space="preserve">
<g>
	<path style="fill:#020202;" d="M158.541,278.612l-54.229,54.228l-32.842-32.836c-1.8-1.807-4.513-2.346-6.866-1.374
		c-2.353,0.972-3.884,3.272-3.884,5.825l-0.008,87.32c0,3.465,2.816,6.289,6.298,6.289l87.332,0.015
		c2.547,0,4.848-1.538,5.819-3.884c0.979-2.36,0.441-5.064-1.36-6.873l-32.85-32.85l54.28-54.29
		c0.008-0.014,0.016-0.028,0.016-0.028c0.023-0.016,0.037-0.016,0.044-0.031l38.222-38.617l-21.684-21.451L158.541,278.612z"/>
	<path style="fill:#020202;" d="M261.424,218.14l38.289-38.691l54.288-54.29l32.844,32.837c1.799,1.808,4.511,2.345,6.864,1.375
		c2.353-0.972,3.884-3.273,3.884-5.827l0.008-87.318c0-3.466-2.816-6.288-6.296-6.288l-87.334-0.016
		c-2.547,0-4.848,1.539-5.819,3.884c-0.978,2.36-0.441,5.065,1.36,6.872l32.88,32.881l-92.532,93.16L261.424,218.14z"/>
	<path style="fill:#020202;" d="M422.953,0H35.972C16.104,0,0.001,16.104,0.001,35.974v386.978c0,19.87,16.104,35.975,35.972,35.975
		h386.98c19.868,0,35.974-16.104,35.974-35.975V35.974C458.926,16.104,442.821,0,422.953,0z M428.331,422.952
		c0,2.959-2.412,5.379-5.378,5.379H35.972c-2.965,0-5.377-2.42-5.377-5.379V35.974c0-2.958,2.412-5.378,5.377-5.378h386.98
		c2.966,0,5.378,2.42,5.378,5.378V422.952z"/>
	<path style="fill:#020202;" d="M394.345,297.974c-2.353-0.972-5.058-0.434-6.864,1.375l-22.057,22.064l-10.817,10.817
		L179.552,158.384c-0.007,0-0.015,0-0.023-0.016l-18.562-18.555l-35.658-35.658l32.857-32.852c1.8-1.793,2.339-4.496,1.368-6.856
		c-0.979-2.345-3.273-3.884-5.819-3.884l-87.318-0.016c-3.48,0-6.296,2.824-6.296,6.289l-0.023,87.349
		c0,2.555,1.539,4.84,3.892,5.827c2.353,0.97,5.058,0.433,6.866-1.375l32.842-32.851l35.66,35.659l18.635,18.629l0.023,0.016
		c0.015,0.014,0.015,0.029,0.031,0.044l120.684,119.422l54.288,54.274l-10.815,10.815l-22.035,22.035
		c-1.801,1.809-2.338,4.513-1.368,6.873c0.979,2.346,3.272,3.885,5.819,3.885h87.318c3.48,0,6.296-2.824,6.296-6.291l0.023-87.348
		C398.236,301.245,396.697,298.96,394.345,297.974z"/>
</g>
<g>
</g>
<g>
</g>
<g>
</g>
<g>
</g>
<g>
</g>
<g>
</g>
<g>
</g>
<g>
</g>
<g>
</g>
<g>
</g>
<g>
</g>
<g>
</g>
<g>
</g>
<g>
</g>
<g>
</g>
</svg>
